<?xml version="1.0" encoding="UTF-8"?>
<svg xmlns="http://www.w3.org/2000/svg" viewBox="0 0 480 320" fill="none" stroke="#1F1B16" stroke-width="2.6" stroke-linecap="round" stroke-linejoin="round"><circle cx="58" cy="56" r="24"/><path d="M58 22 V12 M58 100 V90 M24 56 H14 M102 56 H92 M34 32 l-7 -7 M82 80 l7 7 M82 32 l7 -7 M34 80 l-7 7"/><circle cx="51" cy="52" r="2.2" fill="#1F1B16"/><circle cx="65" cy="52" r="2.2" fill="#1F1B16"/><path d="M51 63 q7 6 14 0"/><path d="M150 70 l3 7 l7 3 l-7 3 l-3 7 l-3 -7 l-7 -3 l7 -3z"/><path d="M430 110 l2.6 6 l6 2.6 l-6 2.6 l-2.6 6 l-2.6 -6 l-6 -2.6 l6 -2.6z"/><path d="M0 292 Q120 278 240 292 Q360 304 480 292"/><ellipse cx="288" cy="214" rx="92" ry="66"/><path d="M212 262 V292 M262 272 V300 M320 272 V300 M368 262 V292"/><circle cx="196" cy="196" r="52"/><path d="M150 172 Q120 168 132 210 Q160 200 178 188"/><path d="M150 208 Q120 250 138 292 Q150 316 176 300"/><path d="M162 250 l-16 20"/><circle cx="182" cy="184" r="4"/><path d="M378 208 q18 6 12 34"/><path d="M300 150 C 268 120 262 92 284 78 C 296 70 310 74 305 90 C 300 74 318 68 330 79 C 350 95 342 122 300 150 Z"/><circle cx="291" cy="104" r="3"/><circle cx="311" cy="104" r="3"/><path d="M292 116 q9 7 18 0"/><path d="M270 112 l-16 -12 M332 112 l18 -8"/></svg>